<svg xmlns="http://www.w3.org/2000/svg" width="1024" height="512"><defs><style>@font-face{font-family:Rajdhani;src:url(../fonts/Rajdhani-SemiBold.ttf)}</style></defs><rect width="100%" height="100%" fill="#0c2328"/><rect x="30" y="30" width="964" height="452" fill="none" stroke="#c9dedb" stroke-width="4"/><rect x="30" y="30" width="175" height="452" fill="#d38a4c" stroke="none" stroke-width="4"/><text x="118" y="190" text-anchor="middle" dominant-baseline="central" font-family="Rajdhani" font-size="135" fill="#0c2328">07</text><text x="118" y="337" text-anchor="middle" dominant-baseline="central" font-family="Rajdhani" font-size="56" fill="#0c2328">BAY</text><text x="590" y="175" text-anchor="middle" dominant-baseline="central" font-family="Rajdhani" font-size="185" fill="#c9dedb">REPAIR</text><text x="590" y="336" text-anchor="middle" dominant-baseline="central" font-family="Rajdhani" font-size="70" fill="#c9dedb">SERVICE / 24 H</text><polyline points="230,432 250,410" fill="none" stroke="#d38a4c" stroke-width="9"/><polyline points="276,432 296,410" fill="none" stroke="#d38a4c" stroke-width="9"/><polyline points="322,432 342,410" fill="none" stroke="#d38a4c" stroke-width="9"/><polyline points="368,432 388,410" fill="none" stroke="#d38a4c" stroke-width="9"/><polyline points="414,432 434,410" fill="none" stroke="#d38a4c" stroke-width="9"/><polyline points="460,432 480,410" fill="none" stroke="#d38a4c" stroke-width="9"/><polyline points="506,432 526,410" fill="none" stroke="#d38a4c" stroke-width="9"/><polyline points="552,432 572,410" fill="none" stroke="#d38a4c" stroke-width="9"/><polyline points="598,432 618,410" fill="none" stroke="#d38a4c" stroke-width="9"/><polyline points="644,432 664,410" fill="none" stroke="#d38a4c" stroke-width="9"/><polyline points="690,432 710,410" fill="none" stroke="#d38a4c" stroke-width="9"/><polyline points="736,432 756,410" fill="none" stroke="#d38a4c" stroke-width="9"/><polyline points="782,432 802,410" fill="none" stroke="#d38a4c" stroke-width="9"/><polyline points="828,432 848,410" fill="none" stroke="#d38a4c" stroke-width="9"/><polyline points="874,432 894,410" fill="none" stroke="#d38a4c" stroke-width="9"/><polyline points="920,432 940,410" fill="none" stroke="#d38a4c" stroke-width="9"/><polyline points="966,432 986,410" fill="none" stroke="#d38a4c" stroke-width="9"/></svg>